<svg width="68" height="68" viewBox="0 0 68 68" fill="none" xmlns="http://www.w3.org/2000/svg">
<path d="M33.2964 33.8543C33.2961 34.0096 33.3418 34.1616 33.4279 34.2908C33.514 34.4201 33.6365 34.5209 33.7799 34.5805C33.9234 34.6401 34.0812 34.6558 34.2336 34.6255C34.3859 34.5953 34.5259 34.5206 34.6357 34.4107C34.7455 34.3009 34.8203 34.161 34.8505 34.0086C34.8807 33.8563 34.865 33.6984 34.8054 33.555C34.7458 33.4116 34.645 33.2891 34.5158 33.203C34.3865 33.1169 34.2346 33.0711 34.0793 33.0715C33.8716 33.0715 33.6725 33.1539 33.5257 33.3008C33.3789 33.4476 33.2964 33.6467 33.2964 33.8543Z" fill="#1E1E1E"/>
<path d="M59.8685 31.84L57.8823 32.3366C55.5651 32.9308 53.3853 33.3843 51.0582 33.9007L49.3236 34.2863L48.8866 34.3857C48.7592 34.4154 48.6135 34.4419 48.4629 34.4734C48.1453 34.5356 47.8319 34.6175 47.5244 34.7183C46.8447 34.9276 46.2326 35.3131 45.7501 35.8356C45.5443 36.0699 45.3711 36.331 45.2354 36.6118L44.7653 36.5688C45.1552 35.0535 45.2179 33.4726 44.9491 31.9313C44.6802 30.3899 44.0862 28.9235 43.2063 27.6297C42.3265 26.3359 41.1812 25.2444 39.8465 24.4278C38.5119 23.6113 37.0186 23.0884 35.4661 22.894C33.9136 22.6997 32.3376 22.8383 30.8428 23.3006C29.3481 23.763 27.969 24.5385 26.7974 25.5755C25.6258 26.6125 24.6885 27.8871 24.048 29.3147C23.4076 30.7422 23.0785 32.2897 23.0829 33.8544C23.0829 34.1026 23.0945 34.3509 23.111 34.5959L21.8895 34.4883L21.2275 34.4221C20.9974 34.4022 20.7607 34.384 20.5058 34.384C20.3709 34.3828 20.2361 34.3894 20.102 34.4039C19.931 34.421 19.7636 34.464 19.6054 34.5313C19.4746 34.5863 19.3568 34.668 19.2595 34.7713C19.1277 34.9124 19.0452 35.0924 19.0245 35.2844C19.0101 35.4287 19.0271 35.5743 19.0741 35.7114C19.1045 35.8047 19.1444 35.8945 19.1933 35.9796C19.27 36.1101 19.3581 36.2336 19.4565 36.3487L19.5756 36.4844L19.6865 36.6085L20.1318 37.1051L21.0239 38.0981C21.6209 38.7602 22.2222 39.4134 22.828 40.0578C24.0445 41.3571 25.271 42.6415 26.5686 43.8829C27.2308 44.5456 27.9816 45.1132 28.7998 45.5695C28.9537 45.6522 29.1142 45.735 29.2765 45.7995L29.197 45.8376C28.8705 46.0109 28.5761 46.2387 28.3264 46.5113L27.709 47.1717C26.6472 46.3919 25.328 46.0463 24.0203 46.2054C22.7126 46.3645 21.5147 47.0163 20.6709 48.028C19.8271 49.0397 19.4008 50.335 19.4789 51.6501C19.557 52.9651 20.1337 54.2009 21.0913 55.1056C22.049 56.0102 23.3156 56.5156 24.6329 56.5188C25.9503 56.522 27.2193 56.0227 28.1813 55.1227C29.1433 54.2227 29.726 52.9897 29.8104 51.675C29.8949 50.3603 29.4748 49.0629 28.6359 48.0472L29.2483 47.405C29.4007 47.2359 29.5809 47.0943 29.7813 46.9863C29.9472 46.8987 30.1334 46.8565 30.3208 46.8638C30.515 46.878 30.703 46.9387 30.8687 47.0409C30.9642 47.0995 31.053 47.1683 31.1335 47.2461L31.4646 47.5374L32.1399 48.1217C33.0369 48.9007 33.9313 49.6847 34.8228 50.4737C35.7144 51.2626 36.6016 52.0549 37.4843 52.8505L38.8084 54.0488L39.4705 54.6513C39.689 54.8532 39.9273 55.0684 40.1706 55.267C40.6739 55.6982 41.2384 56.0524 41.8456 56.318C42.2055 56.4728 42.5944 56.5484 42.986 56.5398C43.2134 56.531 43.4375 56.4822 43.6481 56.3958C43.8583 56.307 44.0506 56.1808 44.2158 56.0234C44.4984 55.7446 44.7135 55.4049 44.8448 55.0303C44.9663 54.6968 45.0448 54.3492 45.0781 53.9958L45.2023 52.1967L45.6823 45.0464L45.9156 41.478L46.0265 39.692L46.0795 38.7966L46.1043 38.3514C46.1043 38.2206 46.1258 38.0932 46.144 37.969C46.2029 37.4953 46.3985 37.0491 46.7068 36.6847C47.0406 36.3294 47.4627 36.0689 47.9299 35.9299C48.1887 35.8457 48.4524 35.7771 48.7194 35.7247C48.8601 35.6949 49.0074 35.6684 49.1696 35.6303L49.6033 35.531L51.3462 35.1421C53.6716 34.6339 54.913 34.3426 57.3461 33.8676L60.1946 33.3297L59.8685 31.84ZM24.6437 54.7158C24.1181 54.7163 23.5997 54.5942 23.1295 54.3592C22.6594 54.1242 22.2506 53.7828 21.9355 53.3621C21.6204 52.9415 21.4078 52.4531 21.3145 51.9359C21.2212 51.4187 21.2498 50.8868 21.3981 50.3826C21.5464 49.8783 21.8102 49.4156 22.1686 49.0312C22.527 48.6468 22.9701 48.3513 23.4628 48.1681C23.9554 47.9849 24.4839 47.9192 25.0064 47.976C25.5289 48.0329 26.031 48.2109 26.4726 48.4958C25.6749 49.373 24.8936 50.2651 24.172 51.2102L23.8741 51.5992L24.5361 52.1983L24.8969 51.8673C25.7692 51.0695 26.5885 50.2237 27.3962 49.368C27.759 49.8729 27.9754 50.4681 28.0217 51.0881C28.0679 51.7081 27.9421 52.3289 27.6582 52.882C27.3743 53.4351 26.9432 53.8991 26.4125 54.223C25.8818 54.5468 25.272 54.7179 24.6503 54.7175L24.6437 54.7158ZM25.847 30.4431C26.6412 28.5385 28.0699 26.9675 29.8908 25.9965C31.7116 25.0255 33.8123 24.7145 35.8363 25.1163C37.8603 25.518 39.683 26.6077 40.995 28.2004C42.307 29.7932 43.0274 31.7908 43.034 33.8544C43.0318 34.7072 42.9081 35.5555 42.6666 36.3735L42.0674 36.3189C42.4407 35.1254 42.5423 33.8635 42.3646 32.6257C42.1869 31.3879 41.7345 30.2055 41.0405 29.1653C40.3465 28.125 39.4286 27.2532 38.3539 26.6137C37.2793 25.9743 36.0752 25.5834 34.8298 25.4697C33.5845 25.3561 32.3295 25.5225 31.1569 25.9568C29.9842 26.3911 28.9236 27.0823 28.0528 27.9798C27.1819 28.8772 26.5229 29.9581 26.1241 31.1433C25.7252 32.3285 25.5966 33.5879 25.7477 34.8292L25.228 34.7812C25.1949 34.4723 25.1783 34.1618 25.1783 33.851C25.1755 32.6822 25.4027 31.5242 25.847 30.4431ZM39.3199 31.6845C38.7782 30.3666 37.7615 29.3 36.4711 28.6959C35.1806 28.0918 33.7104 27.994 32.3513 28.4221C30.9923 28.8501 29.8434 29.7728 29.1321 31.0074C28.4207 32.242 28.1988 33.6986 28.5101 35.0891L27.9772 35.0394C27.9025 34.6499 27.8648 34.2543 27.8646 33.8577C27.8643 32.6257 28.229 31.4212 28.9128 30.3964C29.5965 29.3716 30.5686 28.5723 31.7063 28.0996C32.844 27.627 34.0963 27.502 35.305 27.7406C36.5136 27.9792 37.6245 28.5706 38.4973 29.4401C39.0789 30.019 39.5417 30.7061 39.8595 31.4627C40.1767 32.2213 40.3398 33.0354 40.3394 33.8577C40.3366 34.634 40.1889 35.403 39.9041 36.1252L39.3 36.0706C39.3 36.054 39.3149 36.0391 39.3199 36.0242C39.8848 34.6328 39.8848 33.0759 39.3199 31.6845ZM37.5919 33.8544C37.5932 34.5705 37.3742 35.2697 36.9646 35.8571L30.8819 35.3026C30.665 34.8251 30.5578 34.305 30.5682 33.7806C30.5785 33.2562 30.7062 32.7408 30.9418 32.2722C31.1775 31.8036 31.515 31.3937 31.9298 31.0726C32.3446 30.7516 32.826 30.5275 33.3387 30.4168C33.8514 30.3062 34.3824 30.3117 34.8926 30.4331C35.4029 30.5545 35.8795 30.7887 36.2874 31.1184C36.6953 31.4481 37.0243 31.865 37.25 32.3384C37.4757 32.8119 37.5926 33.3298 37.5919 33.8544ZM43.9013 52.0924L43.7788 53.8601C43.7341 54.3368 43.5521 54.8532 43.3137 55.07C43.2115 55.1741 43.0723 55.2336 42.9264 55.2355C42.7204 55.2349 42.5168 55.1909 42.3289 55.1064C41.8451 54.8888 41.3957 54.6016 40.9949 54.254C40.7764 54.0753 40.5712 53.8915 40.3543 53.688L39.6923 53.0805L38.3682 51.8739C37.4854 51.0739 36.5927 50.2806 35.6901 49.4938C34.7875 48.7071 33.8882 47.9231 32.9923 47.1419L32.3136 46.5576L31.9826 46.2746L38.3748 46.1753L44.3085 46.0726L43.9013 52.0924ZM44.3979 44.8743L38.3665 44.9322L31.6417 45.0051L31.5357 45.015H31.5126H31.4563H31.3321C31.2444 45.015 31.1534 45.015 31.0624 44.9951C30.8744 44.9724 30.6885 44.9353 30.5062 44.8842C30.1248 44.7779 29.7566 44.6285 29.4089 44.439C29.0493 44.2466 28.7061 44.0252 28.3827 43.7769C28.2172 43.6512 28.0516 43.5187 27.901 43.383C27.7504 43.2473 27.5932 43.105 27.4326 42.951C26.1697 41.7444 24.9499 40.4683 23.7466 39.179C23.143 38.5379 22.5422 37.8918 21.9442 37.2408L21.0553 36.2477L20.6134 35.7511L20.5191 35.6469C20.7011 35.6469 20.8981 35.6618 21.1 35.68L21.7621 35.7462L24.4103 35.9729L44.8712 37.7721L44.3979 44.8743Z" fill="#1E1E1E"/>
<path d="M18.1086 42.8898L12.5176 45.1855L11.7132 43.2291C11.0776 41.6815 11.3672 40.1985 13.3335 39.3908C15.4025 38.5417 16.6885 39.4338 17.3324 40.9996L18.1086 42.8898ZM16.4105 41.5127C15.9867 40.4782 15.2419 40.0231 13.8946 40.5709C12.4795 41.1519 12.3355 41.9894 12.7245 42.9378L13.0141 43.6396L16.6687 42.14L16.4105 41.5127Z" fill="#1E1E1E"/>
<path d="M9.88099 31.0836L13.9129 31.1531C15.525 31.1813 16.0282 32.3399 16.005 33.6226C15.9819 34.9054 15.439 36.0557 13.8285 36.0276L9.79492 35.958L9.81644 34.715L13.5107 34.7796C14.4442 34.7961 14.9524 34.4883 14.9689 33.6044C14.9855 32.7206 14.4873 32.4061 13.5538 32.3895L9.85947 32.325L9.88099 31.0836Z" fill="#1E1E1E"/>
<path d="M15.7105 22.7318L18.6103 24.0559L18.2627 24.8106L17.5427 24.6832C17.9251 25.1797 17.9035 25.8881 17.6023 26.5403C16.9403 27.967 15.5516 28.5463 13.6498 27.6707C11.8126 26.8266 11.2366 25.3304 11.9947 23.6984C12.4912 22.6159 13.3188 22.1028 14.3632 22.1558L14.388 23.4799C13.6962 23.3872 13.2096 23.6603 12.9613 24.2015C12.6303 24.9199 12.8239 25.8782 14.2026 26.5187C15.2752 27.0153 16.2947 26.9822 16.7615 25.9659C17.0925 25.2294 16.9601 24.6236 16.4007 24.3654L16.1392 24.2462L15.5781 25.4677L14.6562 25.044L15.7105 22.7318Z" fill="#1E1E1E"/>
<path d="M21.2205 17.2433C21.5671 17.3442 21.908 17.4635 22.2418 17.6008L22.2732 17.5743C22.2732 17.5743 21.8909 17.1721 21.4043 16.5813L19.6961 14.4858L20.6578 13.6996L24.4812 18.3804L23.5841 19.1136L19.9179 18.147C19.5436 18.0479 19.1764 17.9235 18.8189 17.7746L18.7875 17.7994C19.1124 18.1286 19.4207 18.4739 19.711 18.8339L21.3993 20.8995L20.4376 21.6824L16.6143 17.0017L17.5445 16.2453L21.2205 17.2433Z" fill="#1E1E1E"/>
<path d="M30.3833 14.8483L28.0992 15.4044L27.9718 16.8726L26.7056 17.1821L27.4073 10.7899L28.9218 10.4274L32.4886 15.7802L31.1927 16.0963L30.3833 14.8483ZM28.1952 14.3253L29.7924 13.9363L29.2694 13.1352C28.9459 12.6492 28.6593 12.1397 28.412 11.6108L28.3723 11.6208C28.3773 12.2023 28.3496 12.7836 28.2895 13.362L28.1952 14.3253Z" fill="#1E1E1E"/>
<path d="M35.021 15.858L36.1962 9.93088L38.27 10.3414C39.9103 10.6724 40.9878 11.7267 40.574 13.8172C40.1404 16.0119 38.6855 16.5912 37.0254 16.2635L35.021 15.858ZM37.1081 15.1959C38.2055 15.4127 38.9983 15.0469 39.2813 13.6169C39.5793 12.1173 38.9619 11.5347 37.9572 11.3361L37.2124 11.1888L36.4444 15.0635L37.1081 15.1959Z" fill="#1E1E1E"/>
<path d="M49.2153 18.8819C49.1229 18.7434 49.0115 18.6186 48.8843 18.5111C48.444 18.1272 47.7124 17.9517 47.0851 18.6767L45.6071 20.3583L44.6885 19.5605L47.8035 15.9887L48.5996 16.6839L47.8581 17.7514C48.5516 17.2549 49.3477 17.1192 50.1985 17.9418L49.2153 18.8819Z" fill="#1E1E1E"/>
<path d="M50.1937 23.3243L50.5346 24.3704C49.6293 24.7477 48.8613 24.2661 48.3184 23.5196C47.5405 22.4471 47.7242 21.2024 48.9805 20.2871C50.293 19.3354 51.5526 19.4976 52.3669 20.6181C53.1332 21.6725 52.8138 22.7169 51.8405 23.422C51.6694 23.5506 51.4825 23.6569 51.2844 23.7381L49.5416 21.3381C48.9209 21.8264 48.7057 22.4388 49.1096 22.9933C49.3529 23.3375 49.674 23.5031 50.1937 23.3243ZM51.2199 22.414C51.2716 22.3868 51.3208 22.3552 51.3672 22.3196C51.7743 22.025 51.9068 21.5616 51.5857 21.1213C51.2646 20.681 50.7117 20.6148 50.1457 20.9359L51.2199 22.414Z" fill="#1E1E1E"/>
<path d="M52.5008 28.8972C51.5491 29.0859 50.8638 28.495 50.5047 27.5896C50.0081 26.3483 50.5179 25.1897 51.9943 24.6104C53.4707 24.0311 54.6525 24.521 55.1523 25.7905C55.5529 26.8034 55.2649 27.6658 54.4092 28.0696L53.767 27.1974C54.2321 26.9259 54.4158 26.5783 54.2387 26.1298C53.9854 25.4892 53.3002 25.3734 52.4412 25.7127C51.5822 26.052 51.1667 26.6462 51.4117 27.2669C51.5656 27.6591 51.8553 27.8644 52.4048 27.7783L52.5008 28.8972Z" fill="#1E1E1E"/>
</svg>
