<?xml version="1.0" standalone="no"?>
<!DOCTYPE svg PUBLIC "-//W3C//DTD SVG 20010904//EN"
 "http://www.w3.org/TR/2001/REC-SVG-20010904/DTD/svg10.dtd">
<svg version="1.0" xmlns="http://www.w3.org/2000/svg"
 width="700.000000pt" height="700.000000pt" viewBox="0 0 700.000000 700.000000"
 preserveAspectRatio="xMidYMid meet">
<metadata>
Created by potrace 1.14, written by Peter Selinger 2001-2017
</metadata>
<g transform="translate(0.000000,700.000000) scale(0.100000,-0.100000)"
fill="#000000" stroke="none">
<path d="M3723 5968 c0 -7 -21 -118 -47 -247 -26 -128 -50 -243 -52 -255 -19
-97 -18 -101 27 -110 13 -2 64 -12 114 -21 169 -32 260 -13 334 71 94 107 112
320 37 419 -52 67 -112 95 -276 126 -58 11 -112 22 -121 25 -9 2 -16 -1 -16
-8z m192 -139 c102 -24 143 -82 132 -188 -9 -86 -25 -128 -62 -166 -39 -38
-98 -53 -162 -40 -21 5 -44 9 -51 11 -8 1 -15 4 -17 6 -1 2 15 89 36 193 21
105 38 194 39 198 0 5 8 6 18 3 9 -3 40 -10 67 -17z"/>
<path d="M2898 5907 c-66 -16 -78 -22 -79 -41 0 -11 -2 -30 -4 -41 -2 -11 -7
-47 -10 -80 -3 -33 -8 -76 -10 -95 -2 -19 -7 -60 -10 -90 -3 -30 -8 -71 -10
-90 -3 -19 -7 -57 -10 -85 -3 -27 -8 -74 -11 -104 -6 -49 -5 -53 12 -48 11 4
40 11 67 18 26 6 47 16 48 23 2 56 12 132 17 137 4 4 50 17 102 28 52 12 103
24 112 27 12 4 28 -12 58 -59 l40 -65 63 16 c34 8 64 16 66 18 3 3 -313 484
-348 530 l-16 20 -77 -19z m148 -308 c8 -8 14 -19 14 -23 0 -12 -79 -37 -130
-40 -23 -1 -24 1 -21 49 2 28 5 61 6 75 2 14 3 52 4 84 l1 59 56 -94 c31 -52
63 -101 70 -110z"/>
<path d="M2100 5568 c-14 -11 -36 -29 -49 -39 l-23 -19 78 -97 c92 -114 107
-133 154 -187 25 -29 30 -37 15 -32 -32 13 -198 61 -341 99 l-131 35 -47 -40
-46 -39 76 -92 c41 -51 127 -156 191 -235 63 -78 119 -144 123 -147 4 -2 18 5
31 16 13 12 35 29 49 39 l24 18 -56 69 c-31 39 -62 76 -70 84 -7 8 -33 39 -58
69 -24 30 -48 57 -52 58 -5 2 -13 13 -19 24 -9 17 -8 18 8 10 17 -9 166 -50
379 -106 l92 -23 43 34 c24 19 45 36 47 38 2 1 -32 45 -75 97 -43 53 -121 148
-173 213 -52 64 -106 130 -120 146 l-25 28 -25 -21z"/>
<path d="M4757 5168 l-157 -182 42 -38 c24 -20 48 -37 53 -37 6 0 29 23 53 52
72 88 132 147 160 158 39 15 87 3 127 -32 l34 -31 46 43 c25 23 45 47 45 54 0
19 -75 55 -116 56 -22 1 -56 -5 -76 -14 l-37 -16 37 51 36 51 -39 34 c-21 18
-41 33 -44 33 -3 0 -77 -82 -164 -182z"/>
<path d="M5150 4966 c-88 -27 -176 -102 -208 -175 -34 -80 -7 -181 66 -249 55
-51 91 -67 147 -63 42 3 47 14 29 68 -16 49 -17 50 -50 46 -29 -4 -39 1 -63
26 -33 35 -41 63 -29 107 7 27 54 83 61 73 2 -2 41 -56 86 -119 46 -63 85
-117 87 -118 12 -15 106 60 137 109 36 60 23 148 -33 219 -55 70 -149 101
-230 76z m129 -116 c54 -29 63 -96 18 -138 l-22 -21 -48 64 c-62 85 -64 91
-30 103 31 10 52 9 82 -8z"/>
<path d="M1380 4705 c-54 -18 -107 -71 -142 -142 -28 -57 -33 -77 -32 -137 0
-87 20 -134 81 -194 117 -113 306 -153 417 -88 95 56 157 200 119 279 -15 29
-14 30 32 27 27 -1 32 4 44 35 7 20 11 38 9 40 -7 7 -290 136 -292 133 -3 -4
-97 -211 -103 -225 -4 -9 87 -60 91 -51 1 2 15 29 30 61 16 31 32 57 37 57 5
0 23 -13 40 -28 24 -21 31 -36 31 -64 0 -53 -35 -124 -74 -148 -98 -62 -322
39 -344 155 -9 51 10 108 47 139 28 24 44 29 92 29 14 0 17 10 17 69 l0 69
-33 -3 c-19 -1 -49 -7 -67 -13z"/>
<path d="M3340 4639 c-554 -88 -969 -572 -962 -1121 l1 -77 -57 4 c-31 2 -97
7 -145 11 -107 8 -147 1 -187 -32 -24 -20 -30 -34 -30 -63 0 -57 24 -88 270
-355 360 -390 611 -634 690 -670 8 -4 32 -17 54 -30 l39 -24 -24 -12 c-13 -7
-50 -38 -82 -68 -50 -49 -60 -55 -75 -44 -38 28 -131 65 -196 79 -362 75 -695
-262 -620 -627 14 -66 49 -154 71 -178 7 -7 13 -16 13 -20 0 -12 84 -98 125
-129 208 -153 529 -123 698 66 100 112 142 218 142 366 0 116 -25 203 -81 287
l-34 50 32 37 c42 47 86 79 118 84 27 5 82 -14 104 -35 7 -7 42 -38 77 -68
107 -93 316 -276 356 -313 21 -19 88 -78 148 -132 61 -54 151 -135 200 -181
50 -45 106 -94 125 -110 19 -16 46 -39 60 -51 45 -41 163 -94 222 -100 115
-11 202 60 236 192 6 22 14 83 17 135 4 52 8 115 10 140 2 25 7 92 10 150 4
58 8 128 11 155 2 28 6 93 9 145 3 52 8 115 10 140 2 25 6 97 10 160 4 63 8
135 10 160 7 91 15 208 20 310 14 269 29 324 107 384 57 43 82 50 553 152 88
19 192 42 230 50 39 9 77 17 85 19 12 3 149 29 415 81 22 4 45 8 50 8 6 1 12
4 14 9 5 10 -20 130 -29 140 -4 5 -36 1 -71 -8 -35 -10 -71 -18 -79 -20 -8 -2
-69 -17 -135 -34 -115 -28 -363 -85 -415 -95 -95 -18 -497 -110 -551 -126 -67
-21 -171 -81 -200 -117 -9 -11 -24 -34 -35 -52 -33 -56 -75 -29 -53 34 20 58
28 239 15 355 -19 175 -103 394 -205 530 -49 65 -56 73 -121 140 -142 144
-372 271 -555 305 -137 26 -303 32 -415 14z m400 -237 c405 -110 686 -470 688
-881 0 -83 -23 -238 -38 -257 -6 -6 -21 -9 -35 -6 -21 4 -24 8 -19 26 59 185
35 437 -59 623 -68 133 -202 279 -322 349 -158 92 -263 119 -455 119 -131 -1
-154 -3 -235 -29 -147 -46 -253 -108 -356 -207 -176 -171 -270 -397 -263 -637
1 -45 -1 -84 -4 -86 -4 -2 -17 0 -29 5 -20 7 -21 13 -18 116 10 418 290 765
699 868 121 30 331 29 446 -3z m-110 -257 c216 -41 397 -195 482 -410 27 -70
32 -94 34 -195 4 -119 -13 -220 -41 -249 -18 -18 -59 -5 -50 17 43 113 44 280
2 401 -56 160 -180 289 -337 351 -74 29 -112 35 -225 35 -157 -1 -273 -47
-389 -156 -69 -64 -117 -138 -154 -237 -22 -58 -25 -84 -26 -189 -1 -119 -2
-123 -22 -123 -26 0 -31 18 -33 120 -5 213 107 422 290 541 134 88 311 123
469 94z m-13 -286 c47 -15 131 -68 159 -100 55 -64 94 -163 94 -244 0 -48 -20
-127 -44 -174 l-18 -33 -71 7 c-40 4 -90 8 -112 10 -22 2 -71 6 -110 10 -120
12 -138 13 -220 21 -44 4 -86 7 -93 7 -32 1 -47 49 -47 152 0 90 3 105 28 155
31 61 84 120 135 152 83 51 208 67 299 37z m-1312 -544 c94 -7 176 -15 225
-20 48 -5 122 -12 235 -20 39 -3 90 -7 115 -10 25 -3 74 -7 110 -10 36 -3 85
-7 110 -10 25 -3 74 -7 110 -10 36 -3 85 -7 110 -10 25 -2 77 -7 115 -10 125
-10 189 -16 225 -20 19 -2 71 -7 115 -10 44 -3 100 -8 125 -10 25 -2 74 -7
110 -10 36 -3 85 -7 110 -10 25 -2 79 -7 120 -10 41 -3 95 -8 120 -10 25 -3
77 -8 115 -11 39 -4 79 -8 90 -10 11 -1 28 -3 37 -3 15 -1 17 -10 13 -68 -9
-131 -16 -229 -20 -288 -5 -78 -15 -234 -21 -309 -2 -33 -5 -61 -7 -62 -2 -2
-291 -6 -642 -10 -352 -4 -656 -7 -675 -8 -87 -4 -216 46 -325 125 -94 69
-634 627 -777 803 l-32 38 65 -6 c35 -4 91 -9 124 -11z m2249 -1115 c-1 -50
-10 -210 -19 -335 -6 -81 -13 -183 -20 -295 -9 -134 -20 -187 -50 -226 -21
-27 -29 -31 -61 -27 -82 9 -134 48 -448 338 -16 15 -266 236 -300 265 -16 14
-41 36 -56 50 -15 14 -40 36 -56 49 -60 51 -170 147 -208 182 l-40 37 55 0
c94 0 974 14 976 15 1 1 52 2 115 2 l113 0 -1 -55z m-1882 -164 c49 -21 53
-30 26 -59 -66 -71 -146 -166 -207 -245 l-34 -43 32 -30 c24 -22 36 -27 49
-20 9 5 75 68 147 140 71 72 133 131 138 131 10 0 47 -81 54 -118 23 -123 -10
-236 -95 -321 -75 -74 -129 -96 -242 -96 -84 0 -102 3 -151 27 -70 35 -132 97
-167 168 -23 47 -27 68 -27 145 0 78 4 97 28 147 83 168 279 244 449 174z"/>
<path d="M3481 3589 c-32 -13 -50 -38 -51 -71 0 -39 9 -57 40 -73 48 -25 108
4 116 56 10 60 -50 110 -105 88z"/>
<path d="M5390 4481 c-181 -59 -253 -196 -179 -343 24 -48 83 -107 108 -109
76 -7 79 -7 83 9 2 10 1 35 -2 57 -4 35 -9 40 -39 46 -40 8 -58 25 -70 65 -17
60 28 117 120 149 92 33 164 6 175 -66 5 -30 2 -40 -21 -63 l-26 -26 20 -34
c37 -60 46 -63 85 -24 61 61 66 131 18 228 -40 79 -93 114 -180 117 -37 1 -78
-1 -92 -6z"/>
<path d="M1019 3793 c-6 -43 -2 -116 6 -119 5 -1 105 -5 220 -7 240 -4 265
-10 285 -73 15 -45 8 -109 -15 -134 -32 -35 -74 -41 -293 -37 l-212 4 0 -62
c0 -76 -24 -70 277 -70 l221 0 43 30 c63 44 91 106 94 203 2 94 -16 159 -55
201 -54 56 -82 62 -337 67 -128 3 -233 1 -234 -3z"/>
<path d="M1431 2964 c-67 -18 -140 -57 -181 -97 -95 -93 -98 -203 -10 -402 10
-22 25 -57 34 -78 9 -21 20 -37 24 -35 186 73 562 233 562 238 0 21 -94 231
-122 271 -69 103 -176 138 -307 103z m179 -134 c25 -14 62 -64 85 -119 19 -42
19 -44 0 -57 -10 -8 -25 -14 -32 -14 -7 0 -21 -5 -31 -10 -46 -27 -287 -119
-293 -113 -15 16 -49 115 -49 144 0 36 25 88 54 112 78 65 201 92 266 57z"/>
</g>
</svg>
